<svg width="580" height="400" xmlns="http://www.w3.org/2000/svg">
 <!-- Created with Method Draw - http://github.com/duopixel/Method-Draw/ -->
 <defs>
  <filter id="svg_3_blur">
   <feGaussianBlur stdDeviation="0.8" in="SourceGraphic"/>
  </filter>
 </defs>
 <g>
  <title>background</title>
  <rect fill="#fff" id="canvas_background" height="402" width="582" y="-1" x="-1"/>
  <g display="none" overflow="visible" y="0" x="0" height="100%" width="100%" id="canvasGrid">
   <rect fill="url(#gridpattern)" stroke-width="0" y="0" x="0" height="100%" width="100%"/>
  </g>
 </g>
 <g>
  <title>Layer 1</title>
  <path stroke="#fff" filter="url(#svg_3_blur)" opacity="0.9" id="svg_3" d="m187.90106,120.66566c-3.82747,18.22836 -13.60417,35.64939 -14.2625,54.44634c0.87595,10.88341 -7.80488,16.72939 -19.68869,16.52357c-12.78142,11.14362 1.57761,28.75489 16.03946,33.25324c14.75915,8.33273 33.0689,-0.97822 47.68917,6.49657c19.41328,12.7642 27.51789,35.39539 20.82032,55.23579c-6.65918,16.37831 27.42875,10.42166 14.60713,-2.67078c-9.90263,-12.79685 18.66717,-8.56596 11.35313,3.58347c-1.38207,9.75262 8.55283,12.90929 4.13147,22.3578c11.51838,5.55518 -0.96554,8.66562 -7.98132,9.71452c-16.42933,6.88858 2.97175,-12.3398 -10.04355,-18.02718c-11.91875,2.17871 -3.84258,18.96607 -7.93363,17.02715c-8.42214,-5.54701 -8.41593,-26.28571 -22.55112,-12.75396c-4.69133,-16.67351 3.8684,-34.0383 -2.72551,-50.61502c2.70113,-12.37971 -20.53744,-16.64981 -17.59818,-2.29142c1.17173,21.91393 -6.73983,43.78422 -2.19916,65.59019c6.25379,13.44974 23.74463,19.50868 34.72238,29.88746c9.01571,8.00263 20.70381,16.55875 34.73627,14.03924c15.91575,-0.58028 31.86084,-1.81661 47.70477,0.30876c19.92845,0.52866 35.14134,-12.72055 52.14825,-19.52637c19.99295,-13.35269 16.84512,-37.20337 14.85208,-56.2016c-2.44386,-11.72932 2.91888,-23.46398 1.91949,-35.08352c-14.41383,-14.83376 -26.23973,11.23954 -22.13374,22.4415c-0.00101,14.09122 3.21628,32.24311 -12.76504,41.42225c-13.1889,-0.27972 -25.74092,3.74965 -39.03154,1.64285c-10.78459,5.38669 -28.25296,5.24836 -31.81274,-7.5748c-1.42121,-11.38781 4.71357,-23.32678 -3.6219,-33.95478c7.32372,5.3054 20.10133,-4.58209 12.98025,7.31225c-8.68567,9.68198 7.35469,24.60127 13.39314,10.31051c2.00338,-9.58826 -8.66577,-22.31395 8.87207,-20.25973c3.57658,3.38207 -12.2137,27.03955 9.37061,21.06105c15.38844,-2.83516 -2.73773,-23.13862 18.10122,-23.20918c10.0853,-9.98659 7.36984,-28.70516 22.79673,-36.28129c17.20088,-9.791 44.05726,-2.72228 56.33421,-19.30328c10.46439,-8.4851 5.53989,-32.00302 -12.50739,-24.21039c-22.55327,1.84924 -4.6541,-25.69263 -5.28337,-36.01287c5.31394,-8.98856 -6.45338,-27.90948 -2.40136,-29.9169c7.6564,9.8528 10.39861,21.37673 8.75201,32.89134c-0.1415,9.76476 -5.06494,36.2286 11.07514,19.91488c5.46385,-11.36923 3.87474,-24.24692 7.76746,-36.07529c7.50802,-25.53714 -5.93525,-51.08847 -20.92199,-72.71827c-12.76395,-11.64435 -28.96815,-20.9268 -44.18513,-30.06615c-25.5955,-8.09679 -53.8569,-9.54731 -80.88966,-7.51805c-23.91157,3.48608 -49.19796,7.16139 -68.24655,20.87409c-18.5645,9.20045 -36.3439,21.42007 -43.6832,39.09865c-6.39589,14.24187 -17.59592,28.74545 -12.50561,44.56612c4.86819,13.18829 2.28621,26.8848 3.07442,40.36458c8.29883,15.40605 16.13394,-7.88337 15.3573,-15.58674c0.45942,-14.60807 9.62252,-27.53833 16.37442,-40.50658l-0.00002,-0.00002zm152.42695,31.33968c17.06596,1.02857 38.67407,9.02197 39.1398,25.68661c2.59497,16.72341 -13.47073,32.93375 -34.05934,31.29376c-18.70106,-1.29203 -30.66145,-14.87895 -29.41966,-30.15452c-6.26106,-10.95274 3.48226,-22.68327 16.55868,-25.20112c2.53578,-0.71719 5.14228,-1.25401 7.78052,-1.62474l0,0.00001zm-115.16656,1.4244c19.79778,-2.96144 42.32261,7.36861 42.38872,25.80079c1.85941,17.81904 -20.63299,21.31015 -35.97632,25.77408c-10.61689,5.76589 -21.64532,0.39742 -30.46712,-5.41189c-11.44585,-10.07662 -8.08165,-30.38253 4.00401,-39.58076c5.86056,-3.64811 13.11545,-5.08219 20.05071,-6.58222zm67.74509,47.00817c9.58434,11.07993 21.09041,27.97608 8.69579,40.55138c-11.00304,7.42211 -12.39023,-10.55715 -23.93898,-2.08966c-10.83406,-7.98072 -0.84169,-24.22067 6.76011,-32.3281c2.50551,-2.33464 5.37267,-4.39001 8.48308,-6.13362z" stroke-width="8" fill="#000"/>
 </g>
</svg>